<?xml version="1.0" standalone="no"?>
<!DOCTYPE svg PUBLIC "-//W3C//DTD SVG 20010904//EN"
 "http://www.w3.org/TR/2001/REC-SVG-20010904/DTD/svg10.dtd">
<svg version="1.0" xmlns="http://www.w3.org/2000/svg"
 width="219.000000pt" height="317.000000pt" viewBox="0 0 219.000000 317.000000"
 preserveAspectRatio="xMidYMid meet">

<g transform="translate(0.000000,317.000000) scale(0.100000,-0.100000)"
fill="#000000" stroke="none">
<path d="M1503 2149 c16 -25 36 -32 44 -13 7 19 4 22 -29 28 -25 4 -26 3 -15
-15z"/>
<path d="M1390 2061 c0 -5 7 -15 17 -22 15 -13 15 -12 4 9 -12 23 -21 28 -21
13z"/>
<path d="M1191 2051 c-8 -5 -11 -16 -8 -25 9 -22 44 -20 50 3 8 30 -12 41 -42
22z"/>
<path d="M1514 2036 c-7 -20 2 -46 16 -46 5 0 10 9 10 20 0 11 0 23 1 27 1 15
-21 14 -27 -1z"/>
<path d="M1450 1995 c0 -5 5 -17 10 -25 5 -8 10 -10 10 -5 0 6 -5 17 -10 25
-5 8 -10 11 -10 5z"/>
<path d="M1653 1949 c10 -51 30 -65 40 -28 7 28 0 45 -27 63 l-23 14 10 -49z"/>
<path d="M1287 1983 c-4 -3 8 -17 25 -29 37 -28 42 -26 29 10 -10 24 -39 35
-54 19z"/>
<path d="M1210 1920 c0 -6 -4 -9 -9 -5 -16 10 -21 -12 -6 -25 8 -7 13 -15 11
-19 -3 -4 4 -8 15 -8 21 -2 26 12 8 22 -6 4 -8 13 -5 21 3 7 1 16 -4 19 -6 4
-10 1 -10 -5z"/>
<path d="M1776 1910 c-62 -19 -100 -79 -101 -160 0 -49 4 -58 30 -83 l30 -28
3 23 c3 15 -3 28 -17 36 -26 17 -27 32 -3 32 16 1 16 1 0 11 -28 16 -23 67 7
81 14 6 25 15 25 20 0 4 10 8 23 8 13 0 28 5 34 11 18 18 52 0 62 -34 l9 -32
1 37 c1 20 6 40 11 43 19 12 10 24 -27 34 -43 12 -48 12 -87 1z"/>
<path d="M815 1871 c-7 -12 37 -61 54 -61 7 0 9 5 6 10 -3 6 4 10 17 11 13 0
17 3 11 6 -7 2 -13 12 -13 20 0 10 -6 14 -20 10 -11 -3 -20 -1 -20 4 0 12 -27
12 -35 0z"/>
<path d="M1207 1831 c7 -28 40 -54 57 -48 14 5 13 10 -2 37 -20 35 -64 44 -55
11z"/>
<path d="M1776 1813 c9 -38 14 -42 14 -10 0 14 -5 29 -10 32 -7 4 -8 -3 -4
-22z"/>
<path d="M700 1762 c0 -15 16 -29 38 -34 34 -9 27 16 -8 29 -16 6 -30 8 -30 5z"/>
<path d="M1157 1730 c-26 -8 -108 -73 -115 -92 -2 -4 9 -8 24 -8 15 0 37 -9
49 -20 l22 -20 -5 30 c-5 38 11 59 42 53 16 -3 28 -15 35 -34 14 -41 22 -36
16 11 -6 45 5 51 55 25 30 -16 46 -46 34 -67 -6 -10 -4 -11 7 0 22 20 42 16
29 -7 -12 -23 7 -65 31 -69 12 -2 16 8 17 40 1 23 -2 44 -6 47 -4 3 -21 24
-37 45 -48 63 -124 88 -198 66z"/>
<path d="M2160 1700 c-9 -6 -10 -10 -3 -10 6 0 15 5 18 10 8 12 4 12 -15 0z"/>
<path d="M1630 1650 c0 -15 7 -20 25 -20 30 0 33 15 6 30 -27 14 -31 13 -31
-10z"/>
<path d="M2165 1660 c3 -5 10 -10 16 -10 5 0 9 5 9 10 0 6 -7 10 -16 10 -8 0
-12 -4 -9 -10z"/>
<path d="M765 1630 c11 -42 40 -110 46 -110 9 0 22 29 24 53 1 9 -4 17 -11 17
-7 0 -24 15 -39 33 -25 30 -26 30 -20 7z"/>
<path d="M1699 1636 c7 -8 10 -20 6 -26 -3 -5 -1 -10 4 -10 17 0 13 37 -5 44
-14 5 -15 4 -5 -8z"/>
<path d="M1477 1615 c-4 -8 -13 -15 -22 -15 -19 0 -20 -19 0 -26 8 -4 15 -11
15 -16 0 -6 -11 -3 -25 6 -23 15 -26 15 -31 1 -4 -8 -3 -30 0 -49 6 -33 8 -34
76 -44 47 -7 80 -18 103 -36 l34 -26 10 35 c10 30 9 35 -7 40 -10 3 -21 14
-23 23 -3 12 -5 10 -6 -7 -1 -23 -2 -23 -26 -7 -14 10 -34 14 -44 11 -20 -6
-28 12 -37 84 -5 41 -9 47 -17 26z"/>
<path d="M2051 1613 c-19 -9 -29 -19 -23 -21 18 -6 83 19 77 29 -8 12 -14 11
-54 -8z"/>
<path d="M2100 1591 c0 -11 26 -22 34 -14 3 3 3 10 0 14 -7 12 -34 11 -34 0z"/>
<path d="M945 1560 c-10 -11 -24 -20 -30 -20 -14 0 -39 -27 -41 -44 0 -6 -2
-17 -2 -23 -1 -7 -11 -13 -22 -13 -11 0 -20 -5 -20 -11 0 -5 5 -7 11 -4 5 4
18 -2 28 -14 10 -11 21 -18 25 -14 3 3 6 2 6 -4 0 -21 -29 -22 -35 -2 -17 53
-67 -6 -67 -79 0 -54 53 -192 74 -192 4 0 8 -7 8 -15 0 -8 13 -28 29 -44 16
-16 27 -32 25 -34 -6 -6 81 -97 93 -97 11 0 12 -3 22 -190 4 -85 14 -168 21
-185 6 -16 20 -59 30 -95 11 -36 29 -92 40 -125 19 -50 22 -84 24 -205 l1
-145 186 -3 187 -2 6 24 c4 16 11 23 20 20 7 -3 29 4 49 15 19 11 38 17 41 14
3 -4 18 4 32 18 23 22 26 22 35 7 5 -10 9 -21 9 -24 -1 -4 4 -10 10 -14 9 -6
9 -13 0 -31 -8 -17 -3 -13 19 11 17 19 31 38 31 42 0 7 29 16 102 32 15 3 35
19 44 35 10 16 27 32 38 35 12 3 23 6 26 7 3 1 15 10 28 20 13 10 30 15 39 12
11 -4 14 0 11 18 -3 27 -36 38 -49 18 -6 -11 -14 -11 -38 -2 -27 10 -31 9 -36
-8 -11 -35 -31 -20 -26 19 3 22 -19 13 -31 -13 -14 -30 -28 -33 -28 -4 l0 20
-30 -21 -30 -21 -8 21 c-8 21 -8 21 -22 -7 -13 -27 -14 -27 -18 -5 -4 24 -32
31 -32 7 0 -12 -3 -12 -20 2 -12 11 -32 16 -50 15 -20 -2 -30 1 -30 10 0 10
-3 9 -11 -2 -9 -12 -10 -11 -6 8 l5 22 -31 -22 c-25 -18 -30 -19 -24 -5 5 15
3 16 -13 7 -24 -13 -33 -13 -25 0 3 6 1 10 -6 10 -6 0 -18 8 -25 18 -10 14
-15 15 -25 4 -7 -6 -24 -12 -38 -12 -19 0 -22 3 -13 12 21 21 13 28 -29 28
-22 0 -38 4 -35 9 7 10 -18 33 -28 26 -3 -3 1 3 9 13 12 13 18 14 23 5 6 -10
15 -9 37 3 17 8 31 15 33 15 1 -1 2 1 2 4 0 3 0 10 0 16 0 8 -5 7 -15 -1 -9
-7 -19 -10 -23 -6 -4 4 2 14 12 22 14 10 22 11 27 3 4 -6 12 -8 18 -5 6 4 11
2 11 -4 0 -6 5 -8 10 -5 6 4 8 11 4 16 -3 6 3 5 15 -3 38 -24 26 -45 -35 -58
-23 -5 -34 -4 -34 4 0 6 -5 4 -10 -4 -7 -12 -3 -16 18 -21 15 -3 35 -2 44 3
10 5 18 3 21 -5 3 -9 14 -6 43 9 21 12 56 25 77 28 29 6 37 12 38 29 0 22 0
22 10 -2 8 -21 14 -23 46 -18 38 7 72 31 59 44 -4 4 -11 1 -15 -6 -7 -10 -10
-11 -16 -1 -5 8 -1 18 8 25 23 17 21 34 -2 28 -13 -3 -25 3 -36 21 -16 25 -18
25 -31 9 -12 -17 -13 -17 -14 -1 0 13 -7 16 -29 13 -23 -3 -28 0 -24 11 3 8 2
14 -3 13 -23 -4 -34 3 -34 22 0 16 3 19 13 12 13 -10 83 -10 93 0 4 3 4 14 0
23 -4 12 -13 14 -31 10 -32 -8 -65 9 -65 34 0 11 -4 20 -10 20 -5 0 -10 4 -10
9 0 4 10 7 23 7 25 -2 57 20 57 41 0 8 -5 11 -10 8 -6 -3 -19 -3 -30 0 -16 5
-18 10 -10 24 11 22 4 32 -16 24 -11 -4 -13 -14 -8 -36 5 -25 4 -29 -11 -24
-9 4 -30 7 -46 7 -23 0 -29 4 -29 21 0 16 -4 20 -17 14 -14 -5 -15 -4 -6 6 22
22 53 21 53 -1 0 -22 7 -25 30 -10 12 7 12 12 2 22 -17 17 -15 29 3 22 22 -9
45 14 44 45 l0 26 -11 -25 -10 -25 -9 24 -9 24 -24 -22 c-14 -14 -39 -23 -68
-25 -25 -2 -52 -7 -59 -12 -7 -4 -14 -3 -17 4 -2 6 -11 9 -20 6 -15 -5 -15 -4
1 9 10 8 15 21 11 31 -9 23 -24 20 -24 -5 0 -12 -4 -17 -11 -14 -6 4 -17 -1
-25 -11 -15 -18 -15 -18 -10 4 4 23 4 23 -16 6 -11 -11 -31 -17 -47 -16 -20 2
-31 -3 -39 -20 -11 -20 -12 -19 -6 16 4 32 3 38 -8 29 -9 -7 -21 -8 -38 -1
-24 10 -24 10 -5 18 11 5 30 9 43 9 22 1 35 22 72 117 l9 21 -39 -18 c-22 -11
-41 -19 -44 -19 -6 0 -2 23 8 39 7 12 2 13 -27 8 -23 -4 -37 -2 -37 5 0 7 -6
6 -15 -2 -12 -10 -16 -9 -21 4 -3 9 -10 13 -15 10 -5 -3 -14 -2 -21 2 -7 5 -5
11 7 21 12 8 14 13 6 13 -8 0 -11 6 -7 16 4 11 2 15 -8 11 -12 -5 -11 -1 1 24
8 16 18 31 24 34 5 4 9 10 9 16 0 9 -37 -13 -101 -60 -18 -14 -29 -18 -24 -10
15 22 16 44 2 30 -17 -17 -37 -14 -30 6 5 12 2 15 -10 10 -11 -4 -17 -1 -17 8
0 8 5 15 11 15 5 0 9 8 8 18 -4 39 3 51 37 71 19 12 32 25 29 31 -4 6 1 7 11
3 12 -4 15 -3 10 5 -4 7 -2 12 6 12 8 1 7 5 -5 14 -17 13 -15 15 18 36 30 19
33 23 21 36 -17 16 -36 19 -36 4 0 -5 -7 -7 -15 -4 -13 5 -13 9 -3 22 10 12
10 16 0 19 -6 3 -9 9 -6 15 3 5 -2 15 -11 22 -13 9 -16 22 -13 44 5 37 -2 40
-27 12z m-66 -217 c0 -25 -1 -25 -8 -8 -5 11 -7 23 -4 28 8 14 13 7 12 -20z
m271 -316 c0 -2 -10 -12 -21 -23 -22 -19 -22 -19 -10 4 10 18 31 31 31 19z
m-68 -99 c-7 -7 -12 -8 -12 -2 0 14 12 26 19 19 2 -3 -1 -11 -7 -17z m58 2 c0
-5 -5 -10 -11 -10 -5 0 -7 5 -4 10 3 6 8 10 11 10 2 0 4 -4 4 -10z m321 -343
c-10 -9 -11 -8 -5 6 3 10 9 15 12 12 3 -3 0 -11 -7 -18z m-181 -107 c0 -5 -5
-10 -11 -10 -5 0 -7 5 -4 10 3 6 8 10 11 10 2 0 4 -4 4 -10z m97 -6 c14 -13
14 -17 2 -29 -8 -8 -27 -17 -44 -21 -27 -7 -29 -6 -16 9 11 15 11 17 -1 17 -8
0 -19 -5 -25 -11 -6 -6 -16 -8 -22 -5 -17 11 -13 26 8 26 10 0 24 7 31 15 16
19 47 19 67 -1z m183 -37 c0 -14 -19 -37 -31 -37 -4 0 -2 11 4 25 13 27 27 33
27 12z m-70 -297 c0 -5 -5 -10 -11 -10 -5 0 -7 5 -4 10 3 6 8 10 11 10 2 0 4
-4 4 -10z m104 -25 c-4 -9 -16 -21 -28 -27 -19 -10 -19 -9 3 16 28 30 33 32
25 11z m-73 -68 c-17 -17 -64 -17 -50 -1 10 12 49 23 58 17 3 -2 -1 -9 -8 -16z"/>
<path d="M1676 1544 c-3 -8 -10 -13 -15 -10 -13 8 -31 -18 -22 -32 5 -8 17 -1
41 23 24 24 29 35 18 35 -9 0 -19 -7 -22 -16z"/>
<path d="M1048 1491 c11 -7 10 -9 -3 -15 -31 -11 7 -31 60 -31 38 0 50 4 50
15 0 10 -12 16 -35 18 -19 2 -39 8 -44 13 -6 5 -17 9 -25 9 -13 0 -13 -2 -3
-9z"/>
<path d="M1180 1450 c-6 -11 -18 -20 -26 -20 -8 0 -13 -4 -9 -9 3 -5 -4 -12
-15 -16 -11 -3 -20 -11 -20 -16 0 -14 37 -11 54 6 11 11 21 12 38 6 13 -6 17
-10 10 -10 -6 -1 -22 -12 -34 -26 -12 -15 -32 -25 -47 -25 -14 0 -40 -8 -56
-19 -17 -10 -47 -24 -68 -30 -35 -12 -63 -42 -50 -54 3 -3 20 5 38 19 38 29
45 24 40 -29 -2 -20 -1 -37 3 -37 11 1 87 60 76 60 -16 1 41 40 58 40 10 0 15
6 13 13 -3 6 12 23 32 36 64 42 75 53 61 63 -10 6 -9 11 4 19 16 9 16 11 0 27
-26 26 -89 27 -102 2z m35 0 c3 -5 1 -10 -4 -10 -6 0 -11 5 -11 10 0 6 2 10 4
10 3 0 8 -4 11 -10z"/>
<path d="M1365 1419 c-11 -17 1 -21 15 -4 8 9 8 15 2 15 -6 0 -14 -5 -17 -11z"/>
<path d="M1630 1380 c0 -10 -3 -26 -7 -36 -5 -13 -3 -15 8 -8 8 4 22 7 32 6
23 -4 22 3 -8 32 -22 22 -25 23 -25 6z"/>
<path d="M1325 1350 c3 -5 8 -10 11 -10 2 0 4 5 4 10 0 6 -5 10 -11 10 -5 0
-7 -4 -4 -10z"/>
<path d="M1550 1265 c-12 -13 -28 -34 -34 -46 -7 -13 -22 -23 -40 -25 -35 -4
-42 -10 -49 -50 -5 -28 -4 -31 13 -27 11 3 20 10 20 17 0 6 5 4 10 -4 8 -13
10 -12 10 3 0 10 12 22 26 27 14 6 24 16 22 22 -3 7 -1 17 4 23 24 29 56 85
49 85 -4 0 -18 -11 -31 -25z"/>
<path d="M1306 1241 c-4 -7 -5 -15 -2 -18 9 -9 19 4 14 18 -4 11 -6 11 -12 0z"/>
<path d="M1256 1195 c-3 -8 -2 -15 3 -15 5 0 14 7 21 15 10 12 10 15 -3 15 -8
0 -17 -7 -21 -15z"/>
<path d="M1285 1178 c-11 -6 -23 -15 -26 -20 -3 -5 -16 -11 -29 -13 -24 -5
-57 -31 -49 -39 2 -2 22 4 43 15 22 10 42 17 44 14 7 -6 52 35 52 47 0 11 -11
10 -35 -4z"/>
<path d="M1320 1165 c-7 -9 -10 -18 -7 -21 3 -3 10 4 17 15 13 25 8 27 -10 6z"/>
<path d="M1349 1159 c-7 -15 -8 -24 0 -32 7 -7 7 -16 0 -29 -10 -18 -8 -18 11
-8 21 11 40 48 40 76 0 22 -38 17 -51 -7z"/>
<path d="M1411 1164 c0 -11 3 -14 6 -6 3 7 2 16 -1 19 -3 4 -6 -2 -5 -13z"/>
<path d="M1260 1085 c-10 -12 -10 -15 3 -15 19 0 31 16 18 24 -5 3 -14 -1 -21
-9z"/>
<path d="M1325 1040 c3 -5 8 -10 11 -10 2 0 4 5 4 10 0 6 -5 10 -11 10 -5 0
-7 -4 -4 -10z"/>
<path d="M1418 1019 c-26 -19 -28 -20 -29 -2 -1 19 -19 -17 -34 -67 -8 -25 -8
-25 14 -6 11 11 21 25 21 31 0 7 13 15 28 18 19 4 28 12 29 26 1 12 1 21 0 21
-1 0 -14 -10 -29 -21z"/>
<path d="M1252 944 l-29 -70 28 4 c49 7 109 77 109 126 0 7 -15 12 -40 11 -39
0 -40 0 -68 -71z"/>
<path d="M2159 1003 c-13 -17 -13 -17 6 -3 11 8 22 16 24 17 2 2 0 3 -6 3 -6
0 -17 -8 -24 -17z"/>
<path d="M1862 944 c-15 -17 -32 -18 -32 -3 0 6 -7 4 -15 -5 -9 -8 -22 -13
-30 -10 -8 4 -15 1 -15 -5 0 -6 -9 -11 -20 -11 -11 0 -20 -4 -20 -8 0 -4 -14
-16 -30 -26 -17 -9 -43 -29 -58 -43 l-27 -26 25 8 c14 4 34 16 46 26 11 11 23
19 27 19 4 0 25 11 46 24 21 14 42 22 45 19 3 -4 6 -1 6 5 0 7 8 12 18 12 23
1 67 26 56 33 -5 2 -15 -1 -22 -9z"/>
<path d="M1770 804 c0 -14 3 -14 15 -4 8 7 15 14 15 16 0 2 -7 4 -15 4 -8 0
-15 -7 -15 -16z"/>
<path d="M1650 751 c0 -5 7 -11 15 -15 9 -3 15 0 15 9 0 8 -7 15 -15 15 -8 0
-15 -4 -15 -9z"/>
<path d="M1826 504 c-19 -19 -21 -44 -3 -44 19 0 37 21 37 42 0 22 -13 23 -34
2z"/>
<path d="M1690 326 c0 -9 -4 -15 -9 -11 -5 3 -12 1 -16 -5 -3 -5 -1 -10 5 -10
6 0 8 -6 4 -12 -4 -7 4 -3 17 9 18 18 21 25 11 35 -9 9 -12 8 -12 -6z"/>
<path d="M1731 304 c0 -11 3 -14 6 -6 3 7 2 16 -1 19 -3 4 -6 -2 -5 -13z"/>
<path d="M2082 280 c6 -19 38 -26 38 -9 0 7 -3 9 -7 6 -3 -4 -13 -1 -21 6 -13
10 -14 9 -10 -3z"/>
<path d="M1640 35 c-8 -9 -8 -15 -2 -15 12 0 26 19 19 26 -2 2 -10 -2 -17 -11z"/>
</g>
</svg>
