<svg width="135" height="39" viewBox="0 0 135 39" fill="none" xmlns="http://www.w3.org/2000/svg">
<path d="M27.47 2.27L27.02 2.915C26.35 2.495 25.665 2.285 24.965 2.285C24.005 2.285 23.25 2.68 22.7 3.47C22.19 4.19 21.935 5.15 21.935 6.35C21.935 7.6 22.265 8.575 22.925 9.275C23.485 9.885 24.205 10.19 25.085 10.19C25.805 10.19 26.49 9.955 27.14 9.485L27.59 10.16C26.81 10.84 25.925 11.18 24.935 11.18C23.565 11.18 22.49 10.65 21.71 9.59C21.07 8.72 20.75 7.64 20.75 6.35C20.75 4.91 21.14 3.7 21.92 2.72C22.66 1.79 23.605 1.325 24.755 1.325C25.775 1.325 26.68 1.64 27.47 2.27ZM34.3535 11H33.6035L33.4535 10.265C32.8435 10.875 32.0835 11.18 31.1735 11.18C30.4835 11.18 29.9335 10.99 29.5235 10.61C29.1135 10.22 28.9085 9.705 28.9085 9.065C28.9085 7.505 30.0485 6.725 32.3285 6.725H33.3635V6.635C33.3635 5.445 32.7835 4.85 31.6235 4.85C30.9635 4.85 30.3285 5.07 29.7185 5.51L29.3885 4.955C30.0785 4.325 30.9185 4.01 31.9085 4.01C32.6985 4.01 33.3035 4.255 33.7235 4.745C34.1435 5.235 34.3535 5.94 34.3535 6.86V11ZM33.3635 7.46H32.4485C30.8085 7.46 29.9885 7.965 29.9885 8.975C29.9885 9.405 30.1135 9.745 30.3635 9.995C30.6235 10.235 30.9835 10.355 31.4435 10.355C31.8435 10.355 32.2285 10.255 32.5985 10.055C32.9685 9.855 33.2235 9.605 33.3635 9.305V7.46ZM40.238 5.21C39.738 4.95 39.193 4.82 38.603 4.82C38.203 4.82 37.888 4.91 37.658 5.09C37.438 5.26 37.328 5.495 37.328 5.795C37.328 6.115 37.428 6.365 37.628 6.545C37.838 6.715 38.233 6.885 38.813 7.055C39.633 7.305 40.203 7.585 40.523 7.895C40.843 8.205 41.003 8.64 41.003 9.2C41.003 9.79 40.778 10.27 40.328 10.64C39.888 11 39.318 11.18 38.618 11.18C37.698 11.18 36.898 10.93 36.218 10.43C36.248 10.38 36.298 10.295 36.368 10.175C36.438 10.045 36.498 9.945 36.548 9.875C37.128 10.195 37.753 10.355 38.423 10.355C39.473 10.355 39.998 9.96 39.998 9.17C39.998 8.85 39.883 8.6 39.653 8.42C39.433 8.24 39.018 8.07 38.408 7.91C36.988 7.51 36.278 6.815 36.278 5.825C36.278 5.295 36.483 4.86 36.893 4.52C37.313 4.18 37.848 4.01 38.498 4.01C39.268 4.01 39.958 4.225 40.568 4.655L40.238 5.21ZM47.8886 11H47.1386L46.9886 10.265C46.3786 10.875 45.6186 11.18 44.7086 11.18C44.0186 11.18 43.4686 10.99 43.0586 10.61C42.6486 10.22 42.4436 9.705 42.4436 9.065C42.4436 7.505 43.5836 6.725 45.8636 6.725H46.8986V6.635C46.8986 5.445 46.3186 4.85 45.1586 4.85C44.4986 4.85 43.8636 5.07 43.2536 5.51L42.9236 4.955C43.6136 4.325 44.4536 4.01 45.4436 4.01C46.2336 4.01 46.8386 4.255 47.2586 4.745C47.6786 5.235 47.8886 5.94 47.8886 6.86V11ZM46.8986 7.46H45.9836C44.3436 7.46 43.5236 7.965 43.5236 8.975C43.5236 9.405 43.6486 9.745 43.8986 9.995C44.1586 10.235 44.5186 10.355 44.9786 10.355C45.3786 10.355 45.7636 10.255 46.1336 10.055C46.5036 9.855 46.7586 9.605 46.8986 9.305V7.46ZM58.7117 11L58.5467 10.28C58.0667 10.88 57.3717 11.18 56.4617 11.18C55.4717 11.18 54.6867 10.81 54.1067 10.07C53.6067 9.43 53.3567 8.635 53.3567 7.685C53.3567 6.485 53.7067 5.545 54.4067 4.865C54.9867 4.295 55.7017 4.01 56.5517 4.01C57.3517 4.01 57.9917 4.275 58.4717 4.805V1.895L59.4617 1.34V11H58.7117ZM58.4717 9.185V5.93C58.3417 5.62 58.1067 5.36 57.7667 5.15C57.4267 4.93 57.0667 4.82 56.6867 4.82C56.0267 4.82 55.4867 5.08 55.0667 5.6C54.6467 6.11 54.4367 6.77 54.4367 7.58C54.4367 8.5 54.6667 9.215 55.1267 9.725C55.5267 10.145 56.0267 10.355 56.6267 10.355C57.0267 10.355 57.3917 10.25 57.7217 10.04C58.0617 9.82 58.3117 9.535 58.4717 9.185ZM67.3398 7.94H62.4798C62.5198 8.67 62.7698 9.255 63.2298 9.695C63.6998 10.135 64.3048 10.355 65.0448 10.355C65.6648 10.355 66.2698 10.17 66.8598 9.8L67.2048 10.4C66.5448 10.92 65.7498 11.18 64.8198 11.18C63.7398 11.18 62.8798 10.825 62.2398 10.115C61.6498 9.475 61.3548 8.645 61.3548 7.625C61.3548 6.565 61.6698 5.68 62.2998 4.97C62.8698 4.33 63.5748 4.01 64.4148 4.01C65.4248 4.01 66.1948 4.42 66.7248 5.24C67.1348 5.88 67.3398 6.67 67.3398 7.61V7.94ZM62.4648 7.13H66.3048C66.2748 6.4 66.0948 5.83 65.7648 5.42C65.4448 5.01 64.9998 4.805 64.4298 4.805C63.8898 4.805 63.4348 5.02 63.0648 5.45C62.7048 5.88 62.5048 6.44 62.4648 7.13ZM73.015 11V1.505C73.905 1.385 74.675 1.325 75.325 1.325C77.565 1.325 78.685 2.285 78.685 4.205C78.685 5.515 78.125 6.395 77.005 6.845L78.91 11H77.785L76.03 7.115L76.015 7.1C75.845 7.12 75.635 7.13 75.385 7.13C74.995 7.13 74.575 7.1 74.125 7.04V11H73.015ZM74.125 2.315V6.14C74.485 6.2 74.885 6.23 75.325 6.23C76.785 6.23 77.515 5.555 77.515 4.205C77.515 2.875 76.785 2.21 75.325 2.21C74.865 2.21 74.465 2.245 74.125 2.315ZM85.6523 11H84.9023L84.7523 10.265C84.1423 10.875 83.3823 11.18 82.4723 11.18C81.7823 11.18 81.2323 10.99 80.8223 10.61C80.4123 10.22 80.2073 9.705 80.2073 9.065C80.2073 7.505 81.3473 6.725 83.6273 6.725H84.6623V6.635C84.6623 5.445 84.0823 4.85 82.9223 4.85C82.2623 4.85 81.6273 5.07 81.0173 5.51L80.6873 4.955C81.3773 4.325 82.2173 4.01 83.2073 4.01C83.9973 4.01 84.6023 4.255 85.0223 4.745C85.4423 5.235 85.6523 5.94 85.6523 6.86V11ZM84.6623 7.46H83.7473C82.1073 7.46 81.2873 7.965 81.2873 8.975C81.2873 9.405 81.4123 9.745 81.6623 9.995C81.9223 10.235 82.2823 10.355 82.7423 10.355C83.1423 10.355 83.5273 10.255 83.8973 10.055C84.2673 9.855 84.5223 9.605 84.6623 9.305V7.46ZM90.2469 11.825L90.4119 11.135C89.4719 11.005 88.7369 10.59 88.2069 9.89C87.7469 9.27 87.5169 8.515 87.5169 7.625C87.5169 6.525 87.8819 5.625 88.6119 4.925C89.2419 4.315 90.0019 4.01 90.8919 4.01C91.7619 4.01 92.5019 4.25 93.1119 4.73L92.7819 5.3C92.2719 4.98 91.7169 4.82 91.1169 4.82C90.2969 4.82 89.6569 5.12 89.1969 5.72C88.7969 6.24 88.5969 6.89 88.5969 7.67C88.5969 8.5 88.8519 9.165 89.3619 9.665C89.8319 10.125 90.4469 10.355 91.2069 10.355C91.8469 10.355 92.4119 10.17 92.9019 9.8L93.2319 10.4C92.7119 10.88 92.0269 11.135 91.1769 11.165H91.0719L90.9969 11.45C91.0869 11.43 91.1869 11.42 91.2969 11.42C91.9169 11.42 92.2269 11.71 92.2269 12.29C92.2269 12.61 92.0969 12.875 91.8369 13.085C91.5869 13.295 91.2619 13.4 90.8619 13.4C90.5019 13.4 90.1419 13.32 89.7819 13.16L89.9619 12.62C90.2519 12.75 90.5319 12.815 90.8019 12.815C91.2519 12.815 91.4769 12.645 91.4769 12.305C91.4769 11.965 91.2419 11.795 90.7719 11.795C90.6019 11.795 90.4269 11.805 90.2469 11.825ZM101.294 7.61C101.294 8.69 100.954 9.575 100.274 10.265C99.6636 10.875 98.9136 11.18 98.0236 11.18C96.9936 11.18 96.1636 10.79 95.5336 10.01C95.0036 9.35 94.7386 8.55 94.7386 7.61C94.7386 6.51 95.0686 5.62 95.7286 4.94C96.3286 4.32 97.0936 4.01 98.0236 4.01C99.0736 4.01 99.9086 4.405 100.529 5.195C101.039 5.855 101.294 6.66 101.294 7.61ZM95.8186 7.61C95.8186 8.48 96.0436 9.17 96.4936 9.68C96.8936 10.13 97.3986 10.355 98.0086 10.355C98.6686 10.355 99.1986 10.105 99.5986 9.605C100.009 9.095 100.214 8.43 100.214 7.61C100.214 6.75 99.9936 6.06 99.5536 5.54C99.1536 5.06 98.6436 4.82 98.0236 4.82C97.3636 4.82 96.8286 5.08 96.4186 5.6C96.0186 6.11 95.8186 6.78 95.8186 7.61ZM96.3286 2.57L95.9236 2.315C96.1736 1.555 96.5886 1.175 97.1686 1.175C97.4486 1.175 97.7936 1.3 98.2036 1.55C98.5236 1.74 98.7536 1.835 98.8936 1.835C99.1636 1.835 99.4086 1.61 99.6286 1.16L100.049 1.43C99.7886 2.19 99.3936 2.57 98.8636 2.57C98.6436 2.57 98.3536 2.47 97.9936 2.27C97.9636 2.26 97.9186 2.235 97.8586 2.195C97.5586 2.015 97.3286 1.925 97.1686 1.925C97.0086 1.925 96.8436 1.99 96.6736 2.12C96.5036 2.25 96.3886 2.4 96.3286 2.57ZM108.795 7.94H103.935C103.975 8.67 104.225 9.255 104.685 9.695C105.155 10.135 105.76 10.355 106.5 10.355C107.12 10.355 107.725 10.17 108.315 9.8L108.66 10.4C108 10.92 107.205 11.18 106.275 11.18C105.195 11.18 104.335 10.825 103.695 10.115C103.105 9.475 102.81 8.645 102.81 7.625C102.81 6.565 103.125 5.68 103.755 4.97C104.325 4.33 105.03 4.01 105.87 4.01C106.88 4.01 107.65 4.42 108.18 5.24C108.59 5.88 108.795 6.67 108.795 7.61V7.94ZM103.92 7.13H107.76C107.73 6.4 107.55 5.83 107.22 5.42C106.9 5.01 106.455 4.805 105.885 4.805C105.345 4.805 104.89 5.02 104.52 5.45C104.16 5.88 103.96 6.44 103.92 7.13ZM114.257 5.21C113.757 4.95 113.212 4.82 112.622 4.82C112.222 4.82 111.907 4.91 111.677 5.09C111.457 5.26 111.347 5.495 111.347 5.795C111.347 6.115 111.447 6.365 111.647 6.545C111.857 6.715 112.252 6.885 112.832 7.055C113.652 7.305 114.222 7.585 114.542 7.895C114.862 8.205 115.022 8.64 115.022 9.2C115.022 9.79 114.797 10.27 114.347 10.64C113.907 11 113.337 11.18 112.637 11.18C111.717 11.18 110.917 10.93 110.237 10.43C110.267 10.38 110.317 10.295 110.387 10.175C110.457 10.045 110.517 9.945 110.567 9.875C111.147 10.195 111.772 10.355 112.442 10.355C113.492 10.355 114.017 9.96 114.017 9.17C114.017 8.85 113.902 8.6 113.672 8.42C113.452 8.24 113.037 8.07 112.427 7.91C111.007 7.51 110.297 6.815 110.297 5.825C110.297 5.295 110.502 4.86 110.912 4.52C111.332 4.18 111.867 4.01 112.517 4.01C113.287 4.01 113.977 4.225 114.587 4.655L114.257 5.21Z" fill="black"/>
<path d="M33.3561 32V22.505H34.4661V31.055H38.2011V32H33.3561ZM45.1877 32H44.4377L44.2877 31.265C43.6777 31.875 42.9177 32.18 42.0077 32.18C41.3177 32.18 40.7677 31.99 40.3577 31.61C39.9477 31.22 39.7427 30.705 39.7427 30.065C39.7427 28.505 40.8827 27.725 43.1627 27.725H44.1977V27.635C44.1977 26.445 43.6177 25.85 42.4577 25.85C41.7977 25.85 41.1627 26.07 40.5527 26.51L40.2227 25.955C40.9127 25.325 41.7527 25.01 42.7427 25.01C43.5327 25.01 44.1377 25.255 44.5577 25.745C44.9777 26.235 45.1877 26.94 45.1877 27.86V32ZM44.1977 28.46H43.2827C41.6427 28.46 40.8227 28.965 40.8227 29.975C40.8227 30.405 40.9477 30.745 41.1977 30.995C41.4577 31.235 41.8177 31.355 42.2777 31.355C42.6777 31.355 43.0627 31.255 43.4327 31.055C43.8027 30.855 44.0577 30.605 44.1977 30.305V28.46ZM51.9423 25.775L51.1173 26.345C50.7773 26.045 50.4123 25.895 50.0223 25.895C49.4523 25.895 48.9473 26.19 48.5073 26.78V32H47.5023V25.19H48.3573L48.4473 25.91H48.4773C49.0673 25.31 49.6723 25.01 50.2923 25.01C51.0223 25.01 51.5723 25.265 51.9423 25.775ZM58.0784 32H57.3284L57.1784 31.265C56.5684 31.875 55.8084 32.18 54.8984 32.18C54.2084 32.18 53.6584 31.99 53.2484 31.61C52.8384 31.22 52.6334 30.705 52.6334 30.065C52.6334 28.505 53.7734 27.725 56.0534 27.725H57.0884V27.635C57.0884 26.445 56.5084 25.85 55.3484 25.85C54.6884 25.85 54.0534 26.07 53.4434 26.51L53.1134 25.955C53.8034 25.325 54.6434 25.01 55.6334 25.01C56.4234 25.01 57.0284 25.255 57.4484 25.745C57.8684 26.235 58.0784 26.94 58.0784 27.86V32ZM57.0884 28.46H56.1734C54.5334 28.46 53.7134 28.965 53.7134 29.975C53.7134 30.405 53.8384 30.745 54.0884 30.995C54.3484 31.235 54.7084 31.355 55.1684 31.355C55.5684 31.355 55.9534 31.255 56.3234 31.055C56.6934 30.855 56.9484 30.605 57.0884 30.305V28.46ZM66.1229 32H65.1329V28.01C65.1329 26.59 64.5129 25.88 63.2729 25.88C62.9129 25.88 62.5579 25.965 62.2079 26.135C61.8579 26.305 61.5879 26.52 61.3979 26.78V32H60.3929V25.19H61.2329L61.3229 25.91H61.3679C61.9579 25.31 62.6979 25.01 63.5879 25.01C65.2779 25.01 66.1229 25.985 66.1229 27.935V32ZM69.471 25.19V32.99C69.471 33.58 69.321 34.04 69.021 34.37C68.731 34.7 68.326 34.865 67.806 34.865C67.256 34.865 66.741 34.69 66.261 34.34L66.621 33.785C66.931 33.965 67.256 34.055 67.596 34.055C68.186 34.055 68.481 33.685 68.481 32.945V25.19H69.471ZM68.301 22.97C68.301 22.8 68.366 22.65 68.496 22.52C68.626 22.39 68.781 22.325 68.961 22.325C69.141 22.325 69.296 22.39 69.426 22.52C69.556 22.65 69.621 22.8 69.621 22.97C69.621 23.16 69.556 23.32 69.426 23.45C69.296 23.57 69.141 23.63 68.961 23.63C68.771 23.63 68.611 23.57 68.481 23.45C68.361 23.32 68.301 23.16 68.301 22.97ZM77.4563 28.94H72.5963C72.6363 29.67 72.8863 30.255 73.3463 30.695C73.8163 31.135 74.4213 31.355 75.1613 31.355C75.7813 31.355 76.3863 31.17 76.9763 30.8L77.3213 31.4C76.6613 31.92 75.8663 32.18 74.9363 32.18C73.8563 32.18 72.9963 31.825 72.3563 31.115C71.7663 30.475 71.4713 29.645 71.4713 28.625C71.4713 27.565 71.7863 26.68 72.4163 25.97C72.9863 25.33 73.6913 25.01 74.5313 25.01C75.5413 25.01 76.3113 25.42 76.8413 26.24C77.2513 26.88 77.4563 27.67 77.4563 28.61V28.94ZM72.5813 28.13H76.4213C76.3913 27.4 76.2113 26.83 75.8813 26.42C75.5613 26.01 75.1163 25.805 74.5463 25.805C74.0063 25.805 73.5513 26.02 73.1813 26.45C72.8213 26.88 72.6213 27.44 72.5813 28.13ZM80.413 25.19V32H79.423V25.19H80.413ZM79.273 22.97C79.273 22.8 79.338 22.65 79.468 22.52C79.598 22.39 79.753 22.325 79.933 22.325C80.113 22.325 80.268 22.39 80.398 22.52C80.528 22.65 80.593 22.8 80.593 22.97C80.593 23.16 80.528 23.32 80.398 23.45C80.268 23.57 80.113 23.63 79.933 23.63C79.743 23.63 79.583 23.57 79.453 23.45C79.333 23.32 79.273 23.16 79.273 22.97ZM87.2743 25.775L86.4493 26.345C86.1093 26.045 85.7443 25.895 85.3543 25.895C84.7843 25.895 84.2793 26.19 83.8393 26.78V32H82.8343V25.19H83.6893L83.7793 25.91H83.8093C84.3993 25.31 85.0043 25.01 85.6243 25.01C86.3543 25.01 86.9043 25.265 87.2743 25.775ZM93.4104 32H92.6604L92.5104 31.265C91.9004 31.875 91.1404 32.18 90.2304 32.18C89.5404 32.18 88.9904 31.99 88.5804 31.61C88.1704 31.22 87.9654 30.705 87.9654 30.065C87.9654 28.505 89.1054 27.725 91.3854 27.725H92.4204V27.635C92.4204 26.445 91.8404 25.85 90.6804 25.85C90.0204 25.85 89.3854 26.07 88.7754 26.51L88.4454 25.955C89.1354 25.325 89.9754 25.01 90.9654 25.01C91.7554 25.01 92.3604 25.255 92.7804 25.745C93.2004 26.235 93.4104 26.94 93.4104 27.86V32ZM92.4204 28.46H91.5054C89.8654 28.46 89.0454 28.965 89.0454 29.975C89.0454 30.405 89.1704 30.745 89.4204 30.995C89.6804 31.235 90.0404 31.355 90.5004 31.355C90.9004 31.355 91.2854 31.255 91.6554 31.055C92.0254 30.855 92.2804 30.605 92.4204 30.305V28.46ZM99.295 26.21C98.795 25.95 98.25 25.82 97.66 25.82C97.26 25.82 96.945 25.91 96.715 26.09C96.495 26.26 96.385 26.495 96.385 26.795C96.385 27.115 96.485 27.365 96.685 27.545C96.895 27.715 97.29 27.885 97.87 28.055C98.69 28.305 99.26 28.585 99.58 28.895C99.9 29.205 100.06 29.64 100.06 30.2C100.06 30.79 99.835 31.27 99.385 31.64C98.945 32 98.375 32.18 97.675 32.18C96.755 32.18 95.955 31.93 95.275 31.43C95.305 31.38 95.355 31.295 95.425 31.175C95.495 31.045 95.555 30.945 95.605 30.875C96.185 31.195 96.81 31.355 97.48 31.355C98.53 31.355 99.055 30.96 99.055 30.17C99.055 29.85 98.94 29.6 98.71 29.42C98.49 29.24 98.075 29.07 97.465 28.91C96.045 28.51 95.335 27.815 95.335 26.825C95.335 26.295 95.54 25.86 95.95 25.52C96.37 25.18 96.905 25.01 97.555 25.01C98.325 25.01 99.015 25.225 99.625 25.655L99.295 26.21Z" fill="black"/>
<line y1="17.5" x2="135" y2="17.5" stroke="black"/>
</svg>
